<svg width="46" height="16" viewBox="0 0 46 16" fill="none" xmlns="http://www.w3.org/2000/svg">
<path d="M0 15.4413V5.37477V4.48027H3.09499V8.56707H5.03578V4.48027H8.26V15.4413H5.03578V11.1876H3.09499V15.4413H0Z" fill="black"/>
<path fill-rule="evenodd" clip-rule="evenodd" d="M9.04257 15.4413V4.48027H14.6685C16.2137 4.61827 17.1337 6.41404 17.4005 7.29467C18.4035 5.38305 20.6559 4.50689 21.6568 4.30776C26.534 3.43319 29.5413 8.85706 27.6278 12.5291C25.7143 16.2011 19.6429 16.7652 17.4005 12.5291C16.8746 14.5257 15.1988 15.3025 14.4267 15.4413H9.04257ZM11.9529 6.91981V8.72298H13.8391C13.9641 8.66543 14.2353 8.40454 14.3203 7.82139C14.2754 7.59759 14.1163 7.10396 13.8391 6.91981H11.9529ZM11.9529 12.8856V11.0441H13.8391C14.2087 11.3357 14.3139 11.7666 14.3203 11.9457C14.2638 12.2727 14.1528 12.4803 13.8391 12.8856H11.9529ZM16.7503 9.22818V10.641C16.5755 10.4149 16.1209 9.93739 15.7013 9.83567C15.9329 9.80158 16.4668 9.63234 16.7503 9.22818ZM22.5634 12.7088C24.1167 12.7088 25.3759 11.4539 25.3759 9.90586C25.3759 8.35782 24.1167 7.10289 22.5634 7.10289C21.0101 7.10289 19.7509 8.35782 19.7509 9.90586C19.7509 11.4539 21.0101 12.7088 22.5634 12.7088Z" fill="black"/>
<path d="M24.8509 9.85611C24.8509 11.0945 23.8436 12.0985 22.6009 12.0985C21.3583 12.0985 20.3509 11.0945 20.3509 9.85611C20.3509 8.61768 21.3583 7.61373 22.6009 7.61373C23.8436 7.61373 24.8509 8.61768 24.8509 9.85611Z" fill="black"/>
<path d="M33.6134 4.30755C33.8075 4.25455 33.9761 4.24925 34.1191 4.29165C34.2723 4.32345 34.4 4.39235 34.5022 4.49834C34.6145 4.60434 34.6963 4.73683 34.7473 4.89582C34.8086 5.05482 34.8393 5.22971 34.8393 5.4205C34.8495 5.95048 34.8495 6.36386 34.8393 6.66064C34.8393 6.95743 34.8393 7.21712 34.8393 7.43971V12.3208C34.8393 12.8932 34.8393 13.3701 34.8393 13.7517C34.8393 14.1333 34.8188 14.446 34.778 14.6898C34.7473 14.923 34.686 15.0979 34.5941 15.2145C34.5124 15.331 34.3847 15.4105 34.211 15.4529C34.0374 15.5059 33.8075 15.5324 33.5215 15.5324C33.2457 15.5324 32.8983 15.5324 32.4795 15.5324C31.3763 15.5324 30.5028 15.2622 29.8593 14.7216C29.2259 14.181 28.8888 13.3224 28.8479 12.1459C28.8275 11.6371 28.8888 11.1707 29.0318 10.7468C29.1748 10.3228 29.3843 9.96239 29.6601 9.66561C29.9461 9.35822 30.2934 9.12503 30.702 8.96604C31.1209 8.79645 31.5959 8.71695 32.1271 8.72755H32.9699V5.88158C32.9699 5.71199 32.9699 5.54769 32.9699 5.3887C32.9699 5.21911 32.9852 5.06542 33.0158 4.92762C33.0465 4.77923 33.1078 4.65203 33.1997 4.54604C33.2916 4.44004 33.4295 4.36055 33.6134 4.30755ZM30.9472 13.1316C31.1617 13.439 31.5499 13.6086 32.1118 13.6404C32.2241 13.651 32.3314 13.6563 32.4335 13.6563C32.5357 13.6457 32.6276 13.6298 32.7094 13.6086C32.8013 13.598 32.8881 13.5821 32.9699 13.5609V10.6196C32.6123 10.556 32.2854 10.5189 31.9892 10.5083C31.7031 10.4871 31.4171 10.5931 31.1311 10.8263C30.9779 10.9534 30.8604 11.1177 30.7787 11.3191C30.6969 11.5099 30.651 11.7166 30.6407 11.9392C30.6305 12.1512 30.651 12.3632 30.702 12.5752C30.7531 12.7872 30.8348 12.9727 30.9472 13.1316Z" fill="black"/>
<path d="M37.7809 9.39532C37.7809 9.69211 37.7809 10.026 37.7809 10.397C37.7911 10.768 37.7962 11.1548 37.7962 11.5576C37.7962 11.9498 37.7962 12.342 37.7962 12.7342C37.7962 13.1158 37.7911 13.4708 37.7809 13.7994C37.7707 13.9584 37.7553 14.1333 37.7349 14.3241C37.7145 14.5043 37.6736 14.6739 37.6123 14.8329C37.551 14.9919 37.454 15.1244 37.3212 15.2304C37.1986 15.3257 37.03 15.3681 36.8155 15.3575C36.4988 15.3364 36.269 15.1933 36.126 14.9283C35.9932 14.6633 35.9166 14.2923 35.8961 13.8153C35.8961 13.5715 35.891 13.2906 35.8808 12.9727C35.8808 12.6547 35.8757 12.3314 35.8655 12.0028C35.8655 11.6742 35.8655 11.3562 35.8655 11.0488C35.8655 10.7309 35.8655 10.4447 35.8655 10.1903C35.8655 10.0419 35.8604 9.8617 35.8502 9.64971C35.8502 9.43772 35.8553 9.22043 35.8655 8.99784C35.8757 8.77525 35.9012 8.56326 35.9421 8.36187C35.983 8.14988 36.0494 7.97498 36.1413 7.83719C36.2128 7.75239 36.315 7.6888 36.4478 7.6464C36.5806 7.5934 36.7185 7.5669 36.8615 7.5669C37.0147 7.5669 37.1577 7.5934 37.2905 7.6464C37.4336 7.6994 37.5357 7.77359 37.597 7.86899C37.6379 7.93259 37.6685 8.02268 37.6889 8.13928C37.7094 8.25587 37.7247 8.38836 37.7349 8.53676C37.7553 8.67455 37.7656 8.82294 37.7656 8.98194C37.7758 9.13033 37.7809 9.26812 37.7809 9.39532ZM37.1986 6.18366C36.8819 6.26846 36.6163 6.23666 36.4018 6.08827C36.1975 5.92928 36.0698 5.69609 36.0187 5.3887C35.9779 5.16611 35.9932 4.97002 36.0647 4.80043C36.1362 4.63084 36.2435 4.50364 36.3865 4.41884C36.5295 4.32345 36.6929 4.28105 36.8768 4.29165C37.0607 4.30225 37.2446 4.37645 37.4284 4.51424C37.6021 4.64143 37.7247 4.78983 37.7962 4.95942C37.8779 5.12901 37.9035 5.2933 37.8728 5.4523C37.8524 5.61129 37.786 5.75968 37.6736 5.89748C37.5612 6.02467 37.4029 6.12007 37.1986 6.18366Z" fill="black"/>
<path d="M40.6539 8.23467C40.9911 8.06508 41.3435 7.94318 41.7112 7.86899C42.079 7.79479 42.4416 7.77889 42.7992 7.82129C43.1669 7.86369 43.5194 7.96438 43.8565 8.12338C44.2038 8.28237 44.5205 8.50496 44.8065 8.79115C45.0415 9.03494 45.2458 9.33172 45.4194 9.68151C45.5931 10.0207 45.7208 10.3546 45.8025 10.6832C45.9762 11.2661 46.0017 11.8544 45.8791 12.448C45.7565 13.0416 45.5471 13.5927 45.2509 14.1015C45.1079 14.3347 44.9291 14.5467 44.7146 14.7375C44.5103 14.9177 44.2906 15.0661 44.0557 15.1827C43.7492 15.331 43.4172 15.4317 43.0597 15.4847C42.7021 15.5483 42.3548 15.5642 42.0177 15.5324C41.4048 15.5006 40.8634 15.3417 40.3935 15.0555C39.9338 14.7693 39.5609 14.4036 39.2749 13.9584C38.9991 13.5132 38.8152 13.0098 38.7232 12.448C38.6415 11.8756 38.6773 11.2926 38.8305 10.6991C38.9939 10.0631 39.2289 9.54901 39.5354 9.15683C39.852 8.75405 40.2249 8.44666 40.6539 8.23467ZM41.1136 10.3652C40.9604 10.5136 40.8429 10.6991 40.7612 10.9216C40.6795 11.1442 40.6284 11.3774 40.608 11.6212C40.5875 11.8544 40.6029 12.0929 40.6539 12.3367C40.7152 12.5699 40.8072 12.7819 40.9298 12.9727C41.0319 13.1316 41.2158 13.2641 41.4814 13.3701C41.747 13.4761 42.0228 13.5397 42.3088 13.5609C42.6357 13.5821 42.9218 13.492 43.1669 13.2906C43.4121 13.0787 43.596 12.819 43.7186 12.5116C43.8514 12.2042 43.9127 11.8703 43.9024 11.5099C43.8922 11.1495 43.8003 10.821 43.6266 10.5242C43.504 10.3122 43.3304 10.1585 43.1056 10.0631C42.8911 9.95709 42.6613 9.9041 42.4161 9.9041C42.1811 9.8935 41.9462 9.93059 41.7112 10.0154C41.4763 10.0896 41.2771 10.2062 41.1136 10.3652Z" fill="black"/>
<path d="M25.6787 1.2061C25.8487 1.00678 25.9787 0.837358 26.0687 0.697832V0.54834H24.4787C24.3687 0.767594 24.2287 1.01675 24.0587 1.2958C23.8887 1.56488 23.7137 1.82899 23.5337 2.0881C23.3637 2.34722 23.2037 2.57146 23.0537 2.76082V2.94021H23.9237C24.1037 2.80068 24.2937 2.63624 24.4937 2.44688C24.7037 2.24756 24.9087 2.04326 25.1087 1.83397C25.3187 1.61471 25.5087 1.40543 25.6787 1.2061Z" fill="black"/>
</svg>
